<svg width="76" height="35" viewBox="0 0 76 35" fill="none" xmlns="http://www.w3.org/2000/svg">
<rect x="0.693583" y="0.66068" width="27.3239" height="32.9346" rx="4.5" stroke="black"/>
<path d="M12.6835 16.9514L20.7416 8.15902L18.2889 5.48328L7.77829 16.9516L18.2899 28.419L20.7423 25.7431L12.6835 16.9514Z" fill="black"/>
<path d="M37.106 32V3.2H40.364C41.552 3.2 42.416 3.482 42.956 4.046C43.508 4.61 43.796 5.546 43.82 6.854C43.856 8.414 43.874 9.77 43.874 10.922C43.874 12.062 43.856 13.172 43.82 14.252C43.808 15.116 43.664 15.788 43.388 16.268C43.124 16.748 42.71 17.096 42.146 17.312V17.888C42.734 18.08 43.16 18.422 43.424 18.914C43.7 19.394 43.844 20.066 43.856 20.93C43.892 22.262 43.91 23.504 43.91 24.656C43.91 25.796 43.892 27.026 43.856 28.346C43.82 29.642 43.532 30.578 42.992 31.154C42.452 31.718 41.582 32 40.382 32H37.106ZM38.204 30.956H40.382C41.198 30.956 41.792 30.752 42.164 30.344C42.536 29.936 42.734 29.27 42.758 28.346C42.818 27.026 42.848 25.796 42.848 24.656C42.848 23.504 42.818 22.268 42.758 20.948C42.734 19.928 42.518 19.202 42.11 18.77C41.714 18.326 41.072 18.104 40.184 18.104H38.204V30.956ZM38.204 17.06H40.328C41.144 17.06 41.738 16.838 42.11 16.394C42.494 15.95 42.698 15.23 42.722 14.234C42.782 12.914 42.812 11.678 42.812 10.526C42.812 9.374 42.782 8.138 42.722 6.818C42.698 5.906 42.5 5.252 42.128 4.856C41.756 4.448 41.168 4.244 40.364 4.244H38.204V17.06ZM50.0632 32.198C49.0912 32.198 48.3652 31.88 47.8852 31.244C47.4172 30.608 47.1472 29.732 47.0752 28.616C47.0632 28.268 47.0512 27.938 47.0392 27.626C47.0272 27.314 47.0272 26.996 47.0392 26.672C47.0752 25.892 47.1712 25.166 47.3272 24.494C47.4952 23.81 47.7712 23.174 48.1552 22.586C48.5512 21.998 49.1152 21.44 49.8472 20.912C50.2912 20.588 50.7712 20.264 51.2872 19.94C51.8152 19.604 52.3432 19.298 52.8712 19.022V13.676C52.8712 12.788 52.7032 12.152 52.3672 11.768C52.0312 11.384 51.4552 11.192 50.6392 11.192C49.9312 11.192 49.3792 11.366 48.9832 11.714C48.5992 12.05 48.3892 12.704 48.3532 13.676C48.3412 14 48.3292 14.372 48.3172 14.792C48.3172 15.2 48.3172 15.626 48.3172 16.07C48.3292 16.514 48.3412 16.94 48.3532 17.348H47.3092C47.2972 16.748 47.2852 16.124 47.2732 15.476C47.2612 14.816 47.2612 14.228 47.2732 13.712C47.2972 12.884 47.4292 12.212 47.6692 11.696C47.9212 11.18 48.2932 10.802 48.7852 10.562C49.2892 10.322 49.9312 10.202 50.7112 10.202C51.5152 10.202 52.1512 10.328 52.6192 10.58C53.0992 10.832 53.4412 11.222 53.6452 11.75C53.8492 12.266 53.9512 12.944 53.9512 13.784V32H52.8712V30.254H52.6012C52.4092 30.83 52.1152 31.298 51.7192 31.658C51.3352 32.018 50.7832 32.198 50.0632 32.198ZM50.2252 31.208C50.8972 31.208 51.4492 31.016 51.8812 30.632C52.3132 30.236 52.6432 29.648 52.8712 28.868V20.138C52.4632 20.342 52.0372 20.582 51.5932 20.858C51.1492 21.134 50.6032 21.536 49.9552 22.064C49.2352 22.664 48.7612 23.354 48.5332 24.134C48.3052 24.902 48.1732 25.748 48.1372 26.672C48.1372 26.876 48.1372 27.158 48.1372 27.518C48.1492 27.866 48.1612 28.22 48.1732 28.58C48.2332 29.42 48.4432 30.068 48.8032 30.524C49.1752 30.98 49.6492 31.208 50.2252 31.208ZM63.6383 17.348C63.6623 16.868 63.6743 16.418 63.6743 15.998C63.6863 15.566 63.6863 15.158 63.6743 14.774C63.6743 14.378 63.6743 14.012 63.6743 13.676C63.6623 12.704 63.4703 12.05 63.0983 11.714C62.7263 11.366 62.1203 11.192 61.2803 11.192C60.4283 11.192 59.8163 11.366 59.4443 11.714C59.0843 12.05 58.8923 12.704 58.8683 13.676C58.8443 15.14 58.8263 16.478 58.8143 17.69C58.8023 18.902 58.7963 20.078 58.7963 21.218C58.7963 22.346 58.8023 23.516 58.8143 24.728C58.8263 25.94 58.8443 27.278 58.8683 28.742C58.8923 29.702 59.0843 30.356 59.4443 30.704C59.8163 31.04 60.4283 31.208 61.2803 31.208C62.1203 31.208 62.7263 31.04 63.0983 30.704C63.4703 30.356 63.6623 29.702 63.6743 28.742C63.6743 28.202 63.6743 27.632 63.6743 27.032C63.6863 26.42 63.6743 25.742 63.6383 24.998H64.7183C64.7543 25.718 64.7723 26.384 64.7723 26.996C64.7843 27.608 64.7783 28.172 64.7543 28.688C64.7183 29.936 64.4363 30.836 63.9083 31.388C63.3923 31.928 62.5163 32.198 61.2803 32.198C60.0443 32.198 59.1563 31.928 58.6163 31.388C58.0883 30.836 57.8063 29.936 57.7703 28.688C57.7463 27.476 57.7283 26.246 57.7163 24.998C57.7043 23.738 57.6983 22.478 57.6983 21.218C57.6983 19.958 57.7043 18.704 57.7163 17.456C57.7283 16.196 57.7463 14.96 57.7703 13.748C57.8063 12.476 58.0883 11.57 58.6163 11.03C59.1563 10.478 60.0443 10.202 61.2803 10.202C62.5163 10.202 63.3983 10.478 63.9263 11.03C64.4663 11.57 64.7423 12.47 64.7543 13.73C64.7543 14.222 64.7543 14.768 64.7543 15.368C64.7663 15.968 64.7543 16.628 64.7183 17.348H63.6383ZM68.3428 32V3.2H69.4228V11.912L69.3688 20.786H69.8008L71.1508 16.97L73.3828 10.4H74.5708L71.1688 19.76L75.4528 32H74.2468L70.5568 21.146L69.4228 23.918V32H68.3428Z" fill="black"/>
</svg>
