<svg width="535" height="173" viewBox="0 0 535 173" fill="none" xmlns="http://www.w3.org/2000/svg">
<g clip-path="url(#clip0_1_5)">
<path d="M0.503143 3.16441H27.2783C34.5022 3.16441 40.0729 3.91956 43.9903 5.39389C47.8718 6.90418 50.8189 9.06173 52.7596 11.8666C54.7004 14.6714 56.0301 18.0875 56.7489 22.1149C57.4318 26.1424 57.7912 32.3274 57.7912 40.7418V52.4286C57.7912 60.9869 57.1083 67.2438 55.7786 71.1993C54.4488 75.1189 51.969 78.1395 48.375 80.2611C44.781 82.3467 40.0729 83.4255 34.2506 83.4255H27.0627V110.934C27.0627 125.606 15.1666 137.508 0.503143 137.508V3.16441ZM27.0627 26.1783V60.3756C27.8174 60.4475 28.4643 60.4475 29.0034 60.4475C31.4473 60.4475 33.1365 59.6564 34.0709 58.0742C35.0054 56.492 35.5085 53.2197 35.5085 48.2573V37.2178C35.5085 32.615 34.9694 29.6304 33.8553 28.264C32.7771 26.8616 30.5129 26.1783 27.0627 26.1783Z" fill="black"/>
<path d="M126.113 81.8433C126.113 95.328 125.861 104.893 125.394 110.503C124.927 116.112 123.381 121.255 120.866 125.893C118.314 130.532 114.9 134.092 110.551 136.609C106.202 139.09 101.171 140.349 95.4202 140.349C89.9573 140.349 85.0336 139.162 80.6849 136.825C76.3361 134.488 72.85 130.964 70.1904 126.253C67.5309 121.542 65.9495 116.436 65.4464 110.898C64.9432 105.361 64.6917 95.6876 64.6917 81.8433V58.8653C64.6917 45.3806 64.9432 35.8154 65.4104 30.2058C65.8777 24.5961 67.4231 19.454 69.9389 14.8152C72.4906 10.1765 75.9049 6.6165 80.2536 4.09935C84.5664 1.61816 89.6339 0.359589 95.3842 0.359589C100.847 0.359589 105.771 1.54624 110.12 3.8836C114.468 6.22095 117.954 9.74496 120.614 14.4556C123.274 19.1663 124.855 24.2725 125.358 29.8102C125.861 35.3479 126.113 45.021 126.113 58.8653V81.8433ZM99.5533 37.6853C99.5533 31.4284 99.3017 27.4369 98.7626 25.7109C98.2235 23.9848 97.1453 23.0858 95.528 23.0858C94.1264 23.0858 93.0841 23.805 92.3294 25.2074C91.6106 26.6098 91.2152 30.7811 91.2152 37.6853V100.434C91.2152 108.237 91.4668 113.056 91.934 114.89C92.4012 116.724 93.5513 117.623 95.3124 117.623C97.1094 117.623 98.2594 116.58 98.7985 114.458C99.3017 112.373 99.5533 107.338 99.5533 99.4273V37.6853Z" fill="black" stroke="black" stroke-width="2" stroke-miterlimit="10"/>
<path d="M135.996 3.16441H154.793C167.336 3.16441 175.818 3.81168 180.274 5.07025C184.731 6.32883 188.325 9.60112 191.128 14.8152C193.931 20.0293 195.333 28.3719 195.333 39.8429C195.333 50.307 194.327 57.3191 192.35 60.915C190.373 64.5109 186.492 66.6685 180.669 67.3876C185.917 69.1137 189.475 71.4151 191.272 74.2918C193.069 77.1686 194.219 79.7936 194.65 82.2029C195.081 84.6121 195.297 91.2286 195.297 102.088V137.508H170.606V92.8828C170.606 85.6909 170.175 81.232 169.312 79.5059C168.45 77.7799 166.186 76.9168 162.52 76.9168V137.508H135.96V3.16441H135.996ZM162.592 26.1783V56.0605C165.575 56.0605 167.659 55.5211 168.881 54.4423C170.067 53.3635 170.678 49.8755 170.678 43.9422V36.5706C170.678 32.3274 170.103 29.5225 168.953 28.1921C167.767 26.8256 165.647 26.1783 162.592 26.1783Z" fill="black"/>
<path d="M259.162 3.16441V30.0619H243.384V110.934C243.384 125.606 231.488 137.508 216.825 137.508V30.0619H201.119V3.16441H259.162Z" fill="black"/>
<path d="M265.236 3.16441H310.232V27.8684H291.795V51.2779H308.22V74.7593H291.795V110.251C291.795 119.277 283.853 126.577 274.005 126.577C269.153 126.577 265.2 122.945 265.2 118.486V3.16441H265.236Z" fill="black"/>
<path d="M376.901 25.7468C376.398 20.9642 374.78 16.5772 372.085 12.5138C369.389 8.45042 365.831 5.42984 361.375 3.38017C356.954 1.36645 351.923 0.359589 346.352 0.359589C340.494 0.359589 335.318 1.43837 330.898 3.59592C326.477 5.75348 322.955 8.81001 320.367 12.8375C317.78 16.8289 316.234 21.2519 315.731 26.1064C315.228 30.9609 314.976 39.1956 314.976 50.8104V70.624C314.976 72.7815 314.976 74.8312 315.012 76.737C325.111 88.7834 334.312 94.2132 342.327 95.8314C342.147 93.6739 342.075 90.5814 342.075 86.6258V32.5431C342.075 26.5739 342.47 22.978 343.189 21.7913C343.944 20.5687 345.022 19.9574 346.424 19.9574C348.113 19.9574 349.191 20.7125 349.73 22.2228C350.269 23.7331 350.521 27.1852 350.521 32.5791V85.7988C350.521 90.4735 350.413 93.9615 350.162 96.2629C364.681 94.8605 373.81 81.6635 375.104 80.1532C375.679 79.4699 376.577 78.3912 377.584 77.1326C377.62 75.0829 377.62 72.9254 377.62 70.624V50.8104C377.691 38.872 377.44 30.5294 376.901 25.7468Z" fill="black"/>
<path d="M413.883 3.16441V110.611H430.056V137.508H387.323V3.16441H413.883Z" fill="black"/>
<path d="M463.049 3.16441V110.934C463.049 125.606 451.152 137.508 436.489 137.508V3.16441H463.049Z" fill="black"/>
<path d="M535 81.8433C535 95.328 534.748 104.893 534.245 110.503C533.742 116.112 532.197 121.255 529.609 125.893C527.021 130.532 523.499 134.092 519.079 136.609C514.658 139.09 509.519 140.349 503.625 140.349C498.054 140.349 493.022 139.162 488.602 136.825C484.145 134.488 480.587 130.964 477.892 126.253C475.196 121.542 473.579 116.436 473.076 110.898C472.573 105.361 472.321 95.6876 472.321 81.8433V58.8653C472.321 45.3806 472.573 35.8154 473.076 30.2058C473.579 24.5961 475.124 19.454 477.712 14.8152C480.3 10.1765 483.822 6.6165 488.242 4.09935C492.663 1.61816 497.802 0.359589 503.696 0.359589C509.267 0.359589 514.299 1.54624 518.719 3.8836C523.176 6.22095 526.734 9.74496 529.429 14.4556C532.125 19.1663 533.742 24.2725 534.245 29.8102C534.748 35.3479 535 45.021 535 58.8653V81.8433ZM507.865 37.6853C507.865 31.4284 507.614 27.4369 507.075 25.7109C506.536 23.9848 505.421 23.0858 503.768 23.0858C502.367 23.0858 501.252 23.805 500.534 25.2074C499.779 26.6098 499.42 30.7811 499.42 37.6853V100.434C499.42 108.237 499.671 113.056 500.174 114.89C500.677 116.724 501.828 117.623 503.625 117.623C505.457 117.623 506.643 116.58 507.183 114.458C507.686 112.373 507.937 107.338 507.937 99.4273V37.6853H507.865Z" fill="black"/>
<path d="M476.131 121.434C476.382 122.118 476.67 122.729 476.957 123.34C476.957 123.34 481.45 134.308 491.082 137.904C491.082 137.904 501.935 143.513 516.383 137.904C517.21 137.58 527.093 133.948 531.694 120.14C531.694 120.14 534.892 113.559 534.389 94.0335C534.389 94.0335 507.29 147.397 473.291 94.0335L473.04 93.8537C473.04 93.8537 473.507 106.044 473.543 107.914C473.543 108.165 473.579 108.561 473.615 109.028" fill="white"/>
<path d="M476.131 121.434C476.382 122.118 476.67 122.729 476.957 123.34C476.957 123.34 481.45 134.308 491.082 137.904C491.082 137.904 501.935 143.513 516.383 137.904C517.21 137.58 527.093 133.948 531.694 120.14C531.694 120.14 534.892 113.559 534.389 94.0335C534.389 94.0335 507.29 147.397 473.291 94.0335L473.04 93.8537C473.04 93.8537 473.507 106.044 473.543 107.914C473.543 108.165 473.579 108.561 473.615 109.028" stroke="black" stroke-width="3" stroke-miterlimit="10"/>
<path d="M240.833 119.852C239.79 122.801 238.209 126.217 236.125 130.065C235.154 131.827 233.501 133.049 231.165 133.661C229.188 134.164 227.176 134.703 225.091 135.243C223.582 135.71 221.317 136.393 218.262 137.328C217.544 137.328 217.076 137.077 216.933 136.609C216.933 136.034 217.472 135.423 218.478 134.775C221.641 132.833 224.804 130.964 227.966 129.094C231.452 126.792 234.399 124.491 236.807 122.154C237.526 121.183 237.778 119.816 237.49 118.126C237.023 116.94 236.484 116.148 235.873 115.681C235.046 115.825 234.328 115.933 233.609 115.933C230.734 115.933 228.613 114.926 227.176 112.912C226.636 111.977 226.349 110.97 226.349 109.891C226.349 108.741 226.708 107.338 227.391 105.612C228.038 104.354 228.649 103.023 229.188 101.585C229.727 100.147 230.266 98.6362 230.734 97.0181C231.596 95.2561 232.71 94.0694 234.148 93.53C236.771 93.0266 238.892 94.1054 240.473 96.8023C242.198 99.7869 243.097 103.347 243.097 107.446C243.097 107.95 243.097 108.453 243.061 108.957H266.062" fill="white"/>
<path d="M240.833 119.852C239.79 122.801 238.209 126.217 236.125 130.065C235.154 131.827 233.501 133.049 231.165 133.661C229.188 134.164 227.176 134.703 225.091 135.243C223.582 135.71 221.317 136.393 218.262 137.328C217.544 137.328 217.076 137.077 216.933 136.609C216.933 136.034 217.472 135.423 218.478 134.775C221.641 132.833 224.804 130.964 227.966 129.094C231.452 126.792 234.399 124.491 236.807 122.154C237.526 121.183 237.778 119.816 237.49 118.126C237.023 116.94 236.484 116.148 235.873 115.681C235.046 115.825 234.328 115.933 233.609 115.933C230.734 115.933 228.613 114.926 227.176 112.912C226.636 111.977 226.349 110.97 226.349 109.891C226.349 108.741 226.708 107.338 227.391 105.612C228.038 104.354 228.649 103.023 229.188 101.585C229.727 100.147 230.266 98.6362 230.734 97.0181C231.596 95.2561 232.71 94.0694 234.148 93.53C236.771 93.0266 238.892 94.1054 240.473 96.8023C242.198 99.7869 243.097 103.347 243.097 107.446C243.097 107.95 243.097 108.453 243.061 108.957H266.062" stroke="black" stroke-width="3" stroke-miterlimit="10"/>
<path d="M291.077 109.028H316.342C316.306 108.561 316.27 108.165 316.27 107.914C316.234 106.008 315.767 93.8536 315.767 93.8536L316.019 94.0334C350.054 147.397 377.116 94.0334 377.116 94.0334C377.656 113.559 374.421 120.14 374.421 120.14C369.785 133.948 359.901 137.58 359.111 137.904C344.663 143.513 333.809 137.904 333.809 137.904C324.177 134.308 319.685 123.34 319.685 123.34C319.289 122.549 318.93 121.65 318.606 120.751" fill="white"/>
<path d="M291.077 109.028H316.342C316.306 108.561 316.27 108.165 316.27 107.914C316.234 106.008 315.767 93.8536 315.767 93.8536L316.019 94.0334C350.054 147.397 377.116 94.0334 377.116 94.0334C377.656 113.559 374.421 120.14 374.421 120.14C369.785 133.948 359.901 137.58 359.111 137.904C344.663 143.513 333.809 137.904 333.809 137.904C324.177 134.308 319.685 123.34 319.685 123.34C319.289 122.549 318.93 121.65 318.606 120.751" stroke="black" stroke-width="3" stroke-miterlimit="10"/>
<path d="M108.898 137.508C108.43 137.724 108.143 137.832 108.035 137.868C93.5873 143.477 82.7334 137.868 82.7334 137.868C75.5814 135.207 71.2686 128.482 69.5435 125.174C68.9325 124.023 68.645 123.304 68.645 123.304C66.3808 118.881 65.4823 112.013 65.2667 108.992C65.2307 108.525 65.1948 108.129 65.1948 107.878C65.1589 105.972 64.6917 93.8177 64.6917 93.8177L64.9432 93.9975C98.9782 147.361 126.041 93.9975 126.041 93.9975C126.58 113.523 123.345 120.104 123.345 120.104C123.202 120.535 123.058 120.931 122.914 121.327" fill="white"/>
<path d="M108.898 137.508C108.43 137.724 108.143 137.832 108.035 137.868C93.5873 143.477 82.7334 137.868 82.7334 137.868C75.5814 135.207 71.2686 128.482 69.5435 125.174C68.9325 124.023 68.645 123.304 68.645 123.304C66.3808 118.881 65.4823 112.013 65.2667 108.992C65.2307 108.525 65.1948 108.129 65.1948 107.878C65.1589 105.972 64.6917 93.8177 64.6917 93.8177L64.9432 93.9975C98.9782 147.361 126.041 93.9975 126.041 93.9975C126.58 113.523 123.345 120.104 123.345 120.104C123.202 120.535 123.058 120.931 122.914 121.327" stroke="black" stroke-width="3" stroke-miterlimit="10"/>
<path d="M463.084 109.028C463.12 108.525 463.12 108.022 463.12 107.518C463.12 103.419 462.222 99.8589 460.461 96.8743C458.844 94.1773 456.687 93.0985 454.028 93.602C452.554 94.1413 451.404 95.328 450.541 97.09C450.038 98.7082 449.499 100.218 448.96 101.657C448.421 103.059 447.81 104.426 447.127 105.684C446.408 107.374 446.085 108.813 446.085 109.963C446.085 111.042 446.372 112.049 446.912 112.984C448.349 114.998 450.541 116.005 453.453 116.005C454.171 116.005 454.926 115.933 455.753 115.753C456.4 116.184 456.939 117.011 457.406 118.198C457.693 119.888 457.442 121.255 456.687 122.226C454.207 124.563 451.188 126.864 447.666 129.166C444.432 131.036 441.233 132.905 437.998 134.847C436.956 135.494 436.417 136.106 436.417 136.681C436.561 137.149 437.028 137.4 437.783 137.4C440.91 136.501 443.21 135.782 444.755 135.315C446.876 134.775 448.96 134.236 450.937 133.732C453.345 133.085 455.034 131.899 456.004 130.137C456.939 128.411 457.801 126.792 458.52 125.282" fill="white"/>
<path d="M463.084 109.028C463.12 108.525 463.12 108.022 463.12 107.518C463.12 103.419 462.222 99.8589 460.461 96.8743C458.844 94.1773 456.687 93.0985 454.028 93.602C452.554 94.1413 451.404 95.328 450.541 97.09C450.038 98.7082 449.499 100.218 448.96 101.657C448.421 103.059 447.81 104.426 447.127 105.684C446.408 107.374 446.085 108.813 446.085 109.963C446.085 111.042 446.372 112.049 446.912 112.984C448.349 114.998 450.541 116.005 453.453 116.005C454.171 116.005 454.926 115.933 455.753 115.753C456.4 116.184 456.939 117.011 457.406 118.198C457.693 119.888 457.442 121.255 456.687 122.226C454.207 124.563 451.188 126.864 447.666 129.166C444.432 131.036 441.233 132.905 437.998 134.847C436.956 135.494 436.417 136.106 436.417 136.681C436.561 137.149 437.028 137.4 437.783 137.4C440.91 136.501 443.21 135.782 444.755 135.315C446.876 134.775 448.96 134.236 450.937 133.732C453.345 133.085 455.034 131.899 456.004 130.137C456.939 128.411 457.801 126.792 458.52 125.282" stroke="black" stroke-width="3" stroke-miterlimit="10"/>
<path d="M25.9126 114.243C25.3735 118.198 23.3249 123.448 19.7669 129.993C18.7965 131.755 17.1433 132.977 14.7713 133.589C12.7946 134.092 10.7819 134.631 8.69743 135.171C7.18796 135.638 4.92375 136.322 1.86887 137.257C1.15007 137.257 0.682852 137.005 0.539093 136.537C0.539093 135.962 1.07819 135.351 2.0845 134.703C5.24721 132.762 8.40991 130.892 11.5726 129.022C15.0588 126.72 18.0058 124.419 20.4138 122.082C21.1326 121.111 21.3842 119.744 21.0967 118.054C20.6294 116.868 20.0903 116.077 19.4794 115.609C18.6528 115.753 17.934 115.861 17.2152 115.861C14.3759 115.861 12.2195 114.854 10.7819 112.84C10.2428 111.905 9.95532 110.898 9.95532 109.82C9.95532 108.669 10.3147 107.266 10.9976 105.54C11.6445 104.282 12.2555 102.951 12.7946 101.513C13.3337 100.075 13.8728 98.5643 14.34 96.9462C15.2025 95.1842 16.3167 93.9975 17.7543 93.4581C20.3779 92.9547 22.4983 94.0335 24.0797 96.7304C25.8048 99.715 26.6673 103.275 26.6673 107.374C26.7752 109.604 26.4876 111.905 25.9126 114.243Z" fill="white" stroke="black" stroke-width="3" stroke-miterlimit="10"/>
<path d="M429.696 112.373V137.508H387.287C387.287 137.508 421.107 131.791 429.696 112.373Z" fill="white" stroke="black" stroke-width="3" stroke-miterlimit="10"/>
<path d="M266.494 124.419C268.506 132.15 273.143 137.544 278.569 137.544C283.781 137.544 288.309 132.51 290.43 125.21" fill="white"/>
<path d="M266.494 124.419C268.506 132.15 273.143 137.544 278.569 137.544C283.781 137.544 288.309 132.51 290.43 125.21" stroke="black" stroke-width="3" stroke-miterlimit="10"/>
<path d="M266.062 109.028C267.787 100.326 272.711 94.0334 278.569 94.0334C284.392 94.0334 289.351 100.326 291.076 109.028" fill="white"/>
<path d="M266.062 109.028C267.787 100.326 272.711 94.0334 278.569 94.0334C284.392 94.0334 289.351 100.326 291.076 109.028" stroke="black" stroke-width="3" stroke-miterlimit="10"/>
<path d="M148.647 121.362C154.254 111.618 160.148 97.2338 162.52 77.3484V137.508L136.068 137.58C136.068 137.58 136.104 137.544 136.14 137.508" fill="white"/>
<path d="M148.647 121.362C154.254 111.618 160.148 97.2338 162.52 77.3484V137.508L136.068 137.58C136.068 137.58 136.104 137.544 136.14 137.508" stroke="black" stroke-width="3" stroke-miterlimit="10"/>
<path d="M473.579 109.028H463.084" stroke="black" stroke-width="3" stroke-miterlimit="10"/>
<path d="M458.52 125.21H465.744C469.697 125.21 473.327 123.808 476.131 121.434" fill="white"/>
<path d="M458.52 125.21H465.744C469.697 125.21 473.327 123.808 476.131 121.434" stroke="black" stroke-width="3" stroke-miterlimit="10"/>
<path d="M290.43 125.21H307.465C311.814 125.21 315.731 123.484 318.642 120.715" fill="white"/>
<path d="M290.43 125.21H307.465C311.814 125.21 315.731 123.484 318.642 120.715" stroke="black" stroke-width="3" stroke-miterlimit="10"/>
<path d="M108.898 137.508H135.888C135.96 137.508 136.068 137.508 136.14 137.508" fill="white"/>
<path d="M108.898 137.508H135.888C135.96 137.508 136.068 137.508 136.14 137.508" stroke="black" stroke-width="3" stroke-miterlimit="10"/>
<path d="M148.647 121.327H122.914" stroke="black" stroke-width="3" stroke-miterlimit="10"/>
<path d="M266.494 124.419V125.21H252.837C248.38 125.21 244.319 123.412 241.408 120.464C241.192 120.248 241.012 120.068 240.833 119.852" fill="white"/>
<path d="M266.494 124.419V125.21H252.837C248.38 125.21 244.319 123.412 241.408 120.464C241.192 120.248 241.012 120.068 240.833 119.852" stroke="black" stroke-width="3" stroke-miterlimit="10"/>
<path d="M65.2307 109.028H26.7032" stroke="black" stroke-width="4" stroke-miterlimit="10"/>
<path d="M24.7625 118.917C25.1938 119.457 25.6251 119.996 26.1282 120.464C29.0393 123.376 33.1005 125.21 37.5571 125.21H69.5076" fill="white"/>
<path d="M24.7625 118.917C25.1938 119.457 25.6251 119.996 26.1282 120.464C29.0393 123.376 33.1005 125.21 37.5571 125.21H69.5076" stroke="black" stroke-width="4" stroke-miterlimit="10"/>
<path d="M462.509 109.316H474.19L479.401 118.09L478.754 120.715L476.346 121.434L475.052 121.686L470.955 122.657L462.689 124.527L459.814 124.887H458.017L460.533 110.719L462.509 109.316Z" fill="white"/>
<path d="M297.294 110.467L318.642 119.852L318.211 120.715L315.911 121.902L287.734 125.21L262.972 124.419L247.338 122.513L241.731 120.212L240.833 119.421L240.365 118.198L252.765 111.006L265.272 109.352L266.494 109.172L266.997 108.561L277.132 105.217L282.163 105.9L292.083 109.46L293.7 109.388L297.294 110.467Z" fill="white"/>
<path d="M287.447 124.167L290.717 122.945L296.827 122.729L299.486 124.167L297.582 124.635L295.569 124.886H292.155L290.142 124.922L289.855 125.857L289.136 126.577L287.447 124.167Z" fill="white"/>
<path d="M149.977 121.614H108.287V136.789H149.977V121.614Z" fill="white"/>
<path d="M71.3405 124.958H37.3055C29.0394 124.958 22.3546 118.27 22.3546 109.999V109.388H71.3405V124.958Z" fill="white"/>
<path d="M504.799 152.09L498.07 144.555L490.539 151.287L497.268 158.822L504.799 152.09Z" fill="black" stroke="black" stroke-width="2" stroke-miterlimit="10"/>
<path d="M519.068 152.989L512.339 145.454L504.808 152.187L511.537 159.722L519.068 152.989Z" fill="black" stroke="black" stroke-width="2" stroke-miterlimit="10"/>
<path d="M511.946 165.768L505.217 158.233L497.686 164.966L504.415 172.501L511.946 165.768Z" fill="black" stroke="black" stroke-width="2" stroke-miterlimit="10"/>
<path d="M286.605 116.324L279.876 108.789L272.345 115.522L279.074 123.057L286.605 116.324Z" fill="black" stroke="black" stroke-width="2" stroke-miterlimit="10"/>
<path d="M95.3738 156.131L88.6448 148.596L81.1139 155.328L87.8429 162.863L95.3738 156.131Z" fill="black" stroke="black" stroke-width="2" stroke-miterlimit="10"/>
<path d="M109.969 156.843L103.24 149.308L95.709 156.041L102.438 163.576L109.969 156.843Z" fill="black" stroke="black" stroke-width="2" stroke-miterlimit="10"/>
<path d="M286.675 77.7454L279.946 70.2104L272.416 76.9431L279.145 84.478L286.675 77.7454Z" fill="white" stroke="black" stroke-width="2" stroke-miterlimit="10"/>
<path d="M298.84 124.994H290.501L290.142 124.922" fill="black"/>
<path d="M298.84 124.994H290.501L290.142 124.922" stroke="black" stroke-width="2" stroke-miterlimit="10"/>
<path d="M289.962 124.743C289.962 124.994 289.926 125.246 289.819 125.498C289.747 125.714 289.603 125.929 289.567 126.145C289.531 126.361 289.89 126.469 289.926 126.253C289.962 126.001 290.142 125.75 290.214 125.498C290.286 125.246 290.322 124.994 290.322 124.743C290.358 124.527 289.998 124.527 289.962 124.743Z" fill="black"/>
<path d="M294.275 109.208C293.808 109.244 293.377 109.208 292.945 109.172C292.73 109.136 292.73 109.496 292.945 109.532C293.377 109.568 293.844 109.604 294.275 109.568C294.491 109.568 294.527 109.208 294.275 109.208Z" fill="black"/>
<path d="M294.239 109.208C293.7 109.208 293.161 109.208 292.658 109.172C292.155 109.136 291.184 109.208 290.825 108.741C290.681 108.561 290.394 108.741 290.501 108.921C290.753 109.28 291.112 109.388 291.58 109.46C292.442 109.568 293.341 109.604 294.239 109.604C294.491 109.568 294.491 109.208 294.239 109.208Z" fill="black"/>
<path d="M349.766 104.174C349.227 103.742 348.472 103.706 347.43 104.03C347.322 104.066 347.107 104.21 346.819 104.426C346.532 104.677 346.28 104.821 346.1 104.821C346.352 104.138 346.532 103.311 346.639 102.304C346.675 101.441 346.711 100.578 346.747 99.715C346.747 99.6071 346.783 99.3554 346.855 98.888C346.927 98.5643 346.927 98.3126 346.891 98.0609L346.604 98.0249L345.31 99.8589C345.094 100.362 344.986 101.117 345.022 102.088C345.022 103.167 344.986 103.922 344.878 104.354C344.878 105.504 344.16 106.943 342.686 108.741C341.895 108.957 341.464 109.316 341.464 109.82C341.608 109.963 341.824 109.999 342.111 109.999C344.088 109.712 345.597 109.532 346.639 109.496C347.933 109.244 349.119 108.094 350.269 106.044C350.485 105.253 350.305 104.605 349.766 104.174ZM348.041 107.159C347.682 107.59 347.143 107.878 346.424 108.129C346.172 108.201 345.525 108.345 344.519 108.525V108.381C344.95 107.842 345.417 107.266 345.921 106.691C346.424 106.116 346.963 105.792 347.538 105.792C347.718 105.792 347.933 105.828 348.113 105.9L348.401 106.188C348.401 106.475 348.293 106.799 348.041 107.159Z" fill="black"/>
<path d="M458.197 125.57C458.556 125.57 459.311 124.994 458.628 124.994C458.233 124.994 457.478 125.57 458.197 125.57Z" fill="black"/>
<path d="M458.664 125.857C458.7 125.785 458.736 125.714 458.772 125.606C458.772 125.57 458.808 125.534 458.808 125.498C458.808 125.462 458.844 125.426 458.808 125.462C458.736 125.498 458.664 125.57 458.592 125.606C458.52 125.642 458.34 125.642 458.484 125.642C458.736 125.678 459.059 125.534 459.167 125.318C459.275 125.066 459.059 124.922 458.843 124.887C458.52 124.815 458.161 124.887 457.909 125.138C457.765 125.282 457.729 125.534 457.622 125.714C457.514 125.929 457.729 126.109 457.945 126.145C458.197 126.217 458.52 126.109 458.664 125.857Z" fill="black"/>
<path d="M458.197 125.534C458.664 125.534 459.275 124.851 458.592 124.851C458.125 124.851 457.478 125.534 458.197 125.534Z" fill="black"/>
<path d="M458.88 125.03C458.88 124.994 458.88 124.994 458.88 124.958C458.88 124.707 457.837 124.887 457.837 125.246C457.837 125.282 457.837 125.282 457.837 125.318C457.873 125.57 458.88 125.39 458.88 125.03Z" fill="black"/>
<path d="M458.628 125.282C459.67 125.246 460.712 125.138 461.719 125.138C461.934 125.138 462.294 125.102 462.438 124.958C462.545 124.851 462.617 124.743 462.366 124.707C461.252 124.707 460.137 124.815 459.023 124.851C458.772 124.851 457.909 125.282 458.628 125.282Z" fill="black"/>
<path d="M462.15 124.707C461.934 124.707 461.683 124.671 461.467 124.671C461.287 124.851 461.108 124.994 460.928 125.174C461.18 125.174 461.431 125.174 461.683 125.21C461.862 125.03 462.042 124.886 462.222 124.707C461.036 124.671 459.886 124.707 458.7 124.779C458.52 124.779 458.089 124.851 458.017 125.03C457.945 125.21 458.089 125.282 458.269 125.282C459.455 125.21 460.605 125.174 461.791 125.21C462.006 125.21 462.905 124.779 462.33 124.707C462.006 124.671 461.683 124.671 461.323 124.671C461.108 124.671 460.209 125.138 460.784 125.174C461 125.174 461.252 125.21 461.467 125.21C461.683 125.21 462.042 125.174 462.186 125.03C462.33 124.887 462.402 124.743 462.15 124.707Z" fill="black"/>
<path d="M475.627 121.902C475.771 121.758 476.095 121.686 476.31 121.614C476.095 121.614 475.843 121.65 475.627 121.65L475.663 121.686C475.879 121.902 476.849 121.542 476.634 121.327L476.598 121.291C476.454 121.147 476.059 121.255 475.915 121.327C475.484 121.506 475.016 121.65 474.657 121.974C474.477 122.154 474.801 122.19 474.909 122.19C475.196 122.154 475.448 122.082 475.627 121.902Z" fill="black"/>
<path d="M473.04 109.064C473.04 109.064 473.076 109.172 473.076 109.208C473.184 109.172 473.255 109.1 473.363 109.064H473.327C473.507 109.028 473.687 108.992 473.83 108.957H473.794C473.83 108.957 473.902 108.992 473.938 108.992C473.902 108.992 473.902 108.992 473.866 108.957C473.83 108.921 473.651 108.921 473.615 108.921C473.471 108.921 473.327 108.957 473.219 109.028C473.148 109.064 472.788 109.172 472.896 109.316C473.076 109.496 473.507 109.352 473.687 109.28C473.902 109.208 474.154 109.064 474.046 108.813C474.01 108.525 472.968 108.885 473.04 109.064Z" fill="black"/>
<path d="M462.545 108.957C462.581 109.136 462.761 109.244 462.977 109.28C463.228 109.352 463.516 109.28 463.695 109.1C463.839 108.957 463.803 108.705 463.588 108.633C463.48 108.597 463.588 108.633 463.588 108.669C463.48 108.237 462.438 108.489 462.545 108.957Z" fill="black"/>
</g>
<defs>
<clipPath id="clip0_1_5">
<rect width="535" height="173" fill="white"/>
</clipPath>
</defs>
</svg>
